<?xml version="1.0" standalone="no"?>
<!DOCTYPE svg PUBLIC "-//W3C//DTD SVG 20010904//EN"
 "http://www.w3.org/TR/2001/REC-SVG-20010904/DTD/svg10.dtd">
<svg version="1.0" xmlns="http://www.w3.org/2000/svg"
 width="512.000000pt" height="512.000000pt" viewBox="0 0 512.000000 512.000000"
 preserveAspectRatio="xMidYMid meet">
<metadata>
Created by potrace 1.14, written by Peter Selinger 2001-2017
</metadata>
<g transform="translate(0.000000,512.000000) scale(0.100000,-0.100000)"
fill="#000000" stroke="none">
<path d="M2904 4245 c-3 -8 -1 -52 6 -97 6 -46 13 -99 15 -118 9 -95 16 -149
22 -185 3 -22 7 -53 8 -70 3 -46 15 -157 20 -185 5 -27 14 -90 21 -155 2 -22
6 -53 8 -70 2 -16 7 -66 11 -110 4 -44 9 -83 11 -86 2 -3 6 -39 9 -79 3 -40 7
-78 8 -84 4 -21 -51 -17 -107 8 -58 26 -71 23 -65 -15 4 -35 -1 -39 -48 -35
-48 3 -137 -17 -160 -36 -7 -6 -13 -8 -13 -4 0 3 -15 -3 -32 -14 -45 -27 -78
-26 -79 3 0 12 -2 45 -4 72 -1 28 -6 210 -9 405 -7 349 -6 356 15 395 11 22
37 57 57 78 23 23 31 37 22 38 -87 3 -160 3 -160 -1 0 -5 -74 -7 -299 -9 -100
-1 -112 -3 -101 -16 7 -8 17 -15 23 -15 13 0 47 -40 59 -70 15 -39 11 -1141
-5 -1157 -18 -18 -245 -133 -262 -133 -8 0 -15 -4 -15 -8 0 -5 -6 -9 -12 -10
-7 -1 -30 -5 -50 -8 l-38 -6 -1 38 c-5 209 -7 443 -9 785 -2 368 -1 410 15
443 10 20 16 39 13 41 -3 3 -397 8 -522 5 l-30 0 23 -22 c13 -11 32 -41 43
-65 18 -42 19 -74 21 -631 2 -581 2 -587 -18 -587 -31 0 -116 37 -158 69 -20
16 -45 45 -55 65 -19 40 -23 142 -6 148 6 2 20 10 30 18 18 14 18 14 -1 11
-11 -2 -42 -13 -70 -24 l-50 -20 2 -44 c3 -63 43 -148 95 -200 41 -42 158
-108 190 -108 8 0 22 -6 31 -13 16 -11 17 -45 18 -394 0 -428 2 -418 -71 -490
l-39 -38 237 -3 c130 -1 277 -4 326 -7 l89 -4 -46 44 c-33 33 -47 56 -52 84
-4 22 -7 200 -7 395 0 265 3 360 12 371 7 8 15 13 19 10 4 -2 20 2 34 10 15 8
31 15 35 15 4 1 22 8 41 16 18 8 36 14 40 14 3 1 46 20 96 44 49 24 95 41 102
39 10 -4 13 -118 13 -538 l0 -532 -26 -39 c-15 -21 -39 -49 -53 -61 -14 -13
-24 -24 -21 -24 3 -1 102 -3 220 -4 118 -2 250 -5 293 -8 l77 -6 -17 24 c-10
12 -21 21 -26 18 -4 -2 -7 -1 -6 4 1 4 -2 19 -8 33 -11 26 -21 241 -28 600 -2
113 -7 340 -11 505 l-6 301 49 23 c63 29 126 32 185 8 26 -11 45 -23 43 -27
-6 -10 21 -21 29 -13 3 4 6 14 6 24 0 24 39 46 50 28 7 -11 18 -75 25 -149 1
-14 6 -45 10 -69 6 -35 5 -42 -6 -37 -8 4 -7 2 2 -6 15 -13 22 -71 7 -62 -4 3
-8 0 -8 -5 0 -6 8 -11 18 -12 11 0 12 -2 4 -6 -10 -4 -10 -10 2 -29 15 -21 14
-24 -2 -33 -15 -9 -15 -10 0 -11 10 0 15 -7 13 -17 -1 -10 0 -22 4 -28 3 -5 6
-26 7 -45 1 -19 3 -35 4 -35 1 0 3 -10 4 -22 1 -12 -1 -20 -5 -18 -4 3 -5 -4
-2 -15 4 -16 2 -19 -11 -14 -9 3 -13 11 -9 18 4 6 -1 5 -11 -3 -13 -11 -16
-11 -14 -2 2 8 -8 14 -23 16 -22 3 -25 0 -23 -23 2 -23 32 -200 50 -292 3 -14
7 -36 9 -50 4 -26 7 -43 31 -175 8 -44 17 -91 18 -105 2 -14 10 -65 19 -115 9
-49 19 -106 22 -125 3 -19 15 -87 26 -150 11 -63 20 -123 20 -132 0 -21 15
-24 22 -6 2 7 3 26 1 42 -3 26 -2 27 11 10 16 -21 17 -21 20 21 1 17 5 50 8
75 9 61 16 130 23 228 3 45 7 90 9 100 2 9 4 36 4 60 1 38 3 42 26 42 17 0 29
-8 37 -25 6 -14 14 -25 18 -25 4 0 10 -9 13 -21 3 -12 10 -18 16 -14 8 4 8 12
1 26 -6 10 -7 19 -2 19 9 0 7 380 -3 647 -3 93 -1 144 5 148 12 8 60 -21 60
-35 0 -10 69 -110 76 -110 2 0 3 3 3 8 -1 4 -1 161 0 350 1 336 1 342 21 342
13 0 69 -49 151 -131 l130 -130 42 24 c23 14 69 39 102 56 126 66 210 113 217
120 8 7 14 43 23 146 4 39 8 81 10 95 2 14 9 81 15 150 7 69 18 185 25 259 15
148 15 148 -41 218 -19 23 -34 44 -34 48 0 3 -6 12 -12 19 -7 7 -74 94 -148
194 -74 99 -141 183 -149 187 -13 5 -40 -4 -230 -83 -51 -22 -101 -38 -110
-35 -13 3 -16 18 -15 86 0 45 -1 87 -4 94 -3 9 -68 12 -258 13 -216 0 -255 -2
-260 -15z m822 -218 c2 -2 6 -70 9 -153 3 -82 7 -201 10 -264 5 -104 10 -260
19 -558 l4 -103 -39 -40 c-31 -32 -43 -39 -61 -34 -40 13 -81 34 -145 74 -35
22 -63 35 -63 30 0 -6 -7 -4 -15 5 -13 12 -15 79 -15 474 l0 460 25 16 c45 30
230 104 249 100 10 -2 20 -5 22 -7z"/>
<path d="M2930 2426 c0 -2 8 -10 18 -17 15 -13 16 -12 3 4 -13 16 -21 21 -21
13z"/>
<path d="M2926 2365 c15 -11 16 -14 4 -15 -11 0 -16 -10 -15 -30 0 -16 2 -30
5 -30 3 0 6 -9 7 -20 1 -11 -2 -18 -6 -16 -4 3 -7 -3 -8 -13 -2 -21 33 -25 41
-5 3 8 2 12 -4 9 -12 -8 -9 36 4 54 8 11 8 13 -2 7 -20 -12 -28 25 -8 40 17
12 16 13 -3 23 -29 16 -38 13 -15 -4z"/>
<path d="M3114 1055 c3 -23 12 -26 13 -5 1 11 -2 20 -7 20 -4 0 -7 -7 -6 -15z"/>
<path d="M3097 1023 c-13 -12 -7 -22 11 -17 16 5 16 5 0 -8 -13 -11 -15 -21
-8 -48 7 -30 8 -31 10 -10 1 14 2 29 1 34 -1 4 3 14 9 21 11 13 -11 41 -23 28z"/>
</g>
</svg>
